<mxfile host="app.diagrams.net" agent="Mozilla/5.0 (Windows NT 10.0; Win64; x64) AppleWebKit/537.36 (KHTML, like Gecko) Chrome/135.0.0.0 Safari/537.36" version="26.2.14">
  <diagram name="Page-1" id="89fy3inbS4Hky1yQnZDn">
    <mxGraphModel dx="6024" dy="1458" grid="0" gridSize="6" guides="1" tooltips="1" connect="1" arrows="1" fold="1" page="1" pageScale="1" pageWidth="3200" pageHeight="1600" background="#ffffff" math="0" shadow="1">
      <root>
        <object label="" id="0">
          <mxCell />
        </object>
        <mxCell id="1" parent="0" />
        <mxCell id="Iw1TXWK6W0mvqqL7WwOG-4" value="&lt;font style=&quot;color: rgb(0, 0, 0);&quot;&gt;&lt;b&gt;Backend&lt;/b&gt;&lt;/font&gt;" style="rounded=0;whiteSpace=wrap;html=1;verticalAlign=top;" vertex="1" parent="1">
          <mxGeometry x="-1976.0251572327047" y="214" width="1288.7211740041926" height="730.9999999999999" as="geometry" />
        </mxCell>
        <mxCell id="Iw1TXWK6W0mvqqL7WwOG-18" style="edgeStyle=orthogonalEdgeStyle;rounded=0;orthogonalLoop=1;jettySize=auto;html=1;exitX=0.5;exitY=1;exitDx=0;exitDy=0;" edge="1" parent="1" source="Iw1TXWK6W0mvqqL7WwOG-6" target="Iw1TXWK6W0mvqqL7WwOG-8">
          <mxGeometry relative="1" as="geometry" />
        </mxCell>
        <mxCell id="Iw1TXWK6W0mvqqL7WwOG-6" value="MarketCreditRiskAnalyzerCrew" style="rounded=1;whiteSpace=wrap;html=1;fillColor=#ffe6cc;strokeColor=#d79b00;" vertex="1" parent="1">
          <mxGeometry x="-1515.0230607966457" y="267.96644295302013" width="196.15094339622638" height="68.68456375838927" as="geometry" />
        </mxCell>
        <mxCell id="Iw1TXWK6W0mvqqL7WwOG-19" style="edgeStyle=orthogonalEdgeStyle;rounded=0;orthogonalLoop=1;jettySize=auto;html=1;exitX=1;exitY=0.5;exitDx=0;exitDy=0;" edge="1" parent="1" source="Iw1TXWK6W0mvqqL7WwOG-8" target="Iw1TXWK6W0mvqqL7WwOG-15">
          <mxGeometry relative="1" as="geometry" />
        </mxCell>
        <mxCell id="Iw1TXWK6W0mvqqL7WwOG-95" style="edgeStyle=orthogonalEdgeStyle;rounded=0;orthogonalLoop=1;jettySize=auto;html=1;exitX=0;exitY=0.5;exitDx=0;exitDy=0;" edge="1" parent="1" source="Iw1TXWK6W0mvqqL7WwOG-8" target="Iw1TXWK6W0mvqqL7WwOG-81">
          <mxGeometry relative="1" as="geometry" />
        </mxCell>
        <mxCell id="Iw1TXWK6W0mvqqL7WwOG-8" value="Agents" style="rounded=1;whiteSpace=wrap;html=1;verticalAlign=top;fillColor=#fad7ac;strokeColor=#97B409;gradientColor=light-dark(#edb1b1, #ededed);gradientDirection=east;" vertex="1" parent="1">
          <mxGeometry x="-1897.8490566037738" y="455.3771812080537" width="961.8029350104821" height="255.11409395973163" as="geometry" />
        </mxCell>
        <mxCell id="Iw1TXWK6W0mvqqL7WwOG-15" value="Pydantic Structured Output" style="shape=cylinder3;whiteSpace=wrap;html=1;boundedLbl=1;backgroundOutline=1;size=15;fillColor=#ffe6cc;strokeColor=#d79b00;" vertex="1" parent="1">
          <mxGeometry x="-876.8218029350105" y="543.6859060402685" width="151.61425576519915" height="78.49664429530199" as="geometry" />
        </mxCell>
        <mxCell id="Iw1TXWK6W0mvqqL7WwOG-20" value="GPT-4o" style="shape=cylinder3;whiteSpace=wrap;html=1;boundedLbl=1;backgroundOutline=1;size=15;fillColor=#f8cecc;strokeColor=#b85450;" vertex="1" parent="1">
          <mxGeometry x="-1490.3857442348012" y="837.0671140939595" width="146.87631027253667" height="78.49664429530199" as="geometry" />
        </mxCell>
        <mxCell id="Iw1TXWK6W0mvqqL7WwOG-48" style="edgeStyle=orthogonalEdgeStyle;rounded=0;orthogonalLoop=1;jettySize=auto;html=1;exitX=0.5;exitY=1;exitDx=0;exitDy=0;" edge="1" parent="1" source="Iw1TXWK6W0mvqqL7WwOG-26" target="Iw1TXWK6W0mvqqL7WwOG-20">
          <mxGeometry relative="1" as="geometry" />
        </mxCell>
        <mxCell id="Iw1TXWK6W0mvqqL7WwOG-26" value="Credit Researcher Agent" style="swimlane;whiteSpace=wrap;html=1;" vertex="1" parent="1">
          <mxGeometry x="-1833.8867924528304" y="503.4563758389261" width="293.75262054507334" height="147.18120805369125" as="geometry" />
        </mxCell>
        <mxCell id="Iw1TXWK6W0mvqqL7WwOG-34" value="People Review Analysis Task" style="whiteSpace=wrap;html=1;aspect=fixed;" vertex="1" parent="Iw1TXWK6W0mvqqL7WwOG-26">
          <mxGeometry x="208.46960167714877" y="40.22953020134227" width="75.20308702297726" height="75.20308702297726" as="geometry" />
        </mxCell>
        <mxCell id="Iw1TXWK6W0mvqqL7WwOG-33" value="Global Events Analysis Task" style="whiteSpace=wrap;html=1;aspect=fixed;" vertex="1" parent="Iw1TXWK6W0mvqqL7WwOG-26">
          <mxGeometry x="108.9727463312369" y="40.22953020134227" width="75.20308702297726" height="75.20308702297726" as="geometry" />
        </mxCell>
        <mxCell id="Iw1TXWK6W0mvqqL7WwOG-49" style="edgeStyle=orthogonalEdgeStyle;rounded=0;orthogonalLoop=1;jettySize=auto;html=1;exitX=0.5;exitY=1;exitDx=0;exitDy=0;" edge="1" parent="1" source="Iw1TXWK6W0mvqqL7WwOG-28" target="Iw1TXWK6W0mvqqL7WwOG-20">
          <mxGeometry relative="1" as="geometry" />
        </mxCell>
        <mxCell id="Iw1TXWK6W0mvqqL7WwOG-28" value="Credit Risk Analysis Agent" style="swimlane;whiteSpace=wrap;html=1;" vertex="1" parent="1">
          <mxGeometry x="-1502.230607966457" y="503.4563758389261" width="170.56603773584902" height="147.18120805369125" as="geometry" />
        </mxCell>
        <mxCell id="Iw1TXWK6W0mvqqL7WwOG-35" value="Credit Risk Analysis Task" style="whiteSpace=wrap;html=1;aspect=fixed;" vertex="1" parent="Iw1TXWK6W0mvqqL7WwOG-28">
          <mxGeometry x="47.379454926624724" y="40.22953020134227" width="75.20308702297726" height="75.20308702297726" as="geometry" />
        </mxCell>
        <mxCell id="Iw1TXWK6W0mvqqL7WwOG-50" style="edgeStyle=orthogonalEdgeStyle;rounded=0;orthogonalLoop=1;jettySize=auto;html=1;exitX=0.5;exitY=1;exitDx=0;exitDy=0;" edge="1" parent="1" source="Iw1TXWK6W0mvqqL7WwOG-29" target="Iw1TXWK6W0mvqqL7WwOG-20">
          <mxGeometry relative="1" as="geometry" />
        </mxCell>
        <mxCell id="Iw1TXWK6W0mvqqL7WwOG-77" value="Prompts/Responses" style="edgeLabel;html=1;align=center;verticalAlign=middle;resizable=0;points=[];" vertex="1" connectable="0" parent="Iw1TXWK6W0mvqqL7WwOG-50">
          <mxGeometry x="0.6723" y="2" relative="1" as="geometry">
            <mxPoint y="-1" as="offset" />
          </mxGeometry>
        </mxCell>
        <mxCell id="Iw1TXWK6W0mvqqL7WwOG-29" value="Strategic Decision Making Agent" style="swimlane;whiteSpace=wrap;html=1;" vertex="1" parent="1">
          <mxGeometry x="-1293.76" y="503.46" width="194.76" height="147.18" as="geometry" />
        </mxCell>
        <mxCell id="Iw1TXWK6W0mvqqL7WwOG-36" value="Strategic Decision Making Task" style="whiteSpace=wrap;html=1;aspect=fixed;" vertex="1" parent="Iw1TXWK6W0mvqqL7WwOG-29">
          <mxGeometry x="52.117400419287215" y="40.22953020134227" width="75.20308702297727" height="75.20308702297727" as="geometry" />
        </mxCell>
        <mxCell id="Iw1TXWK6W0mvqqL7WwOG-31" value="Market Data Analysis Task" style="whiteSpace=wrap;html=1;aspect=fixed;" vertex="1" parent="1">
          <mxGeometry x="-1824.4109014675053" y="543.6859060402685" width="75.20308702297726" height="75.20308702297726" as="geometry" />
        </mxCell>
        <mxCell id="Iw1TXWK6W0mvqqL7WwOG-56" style="edgeStyle=orthogonalEdgeStyle;rounded=0;orthogonalLoop=1;jettySize=auto;html=1;exitX=0.5;exitY=1;exitDx=0;exitDy=0;" edge="1" parent="1" source="Iw1TXWK6W0mvqqL7WwOG-54" target="Iw1TXWK6W0mvqqL7WwOG-20">
          <mxGeometry relative="1" as="geometry">
            <Array as="points">
              <mxPoint x="-1028.4360587002097" y="876.3154362416107" />
            </Array>
          </mxGeometry>
        </mxCell>
        <mxCell id="Iw1TXWK6W0mvqqL7WwOG-78" value="Prompts/Responses" style="edgeLabel;html=1;align=center;verticalAlign=middle;resizable=0;points=[];" vertex="1" connectable="0" parent="Iw1TXWK6W0mvqqL7WwOG-56">
          <mxGeometry x="-0.3013" y="1" relative="1" as="geometry">
            <mxPoint as="offset" />
          </mxGeometry>
        </mxCell>
        <mxCell id="Iw1TXWK6W0mvqqL7WwOG-54" value="Strategic Support Agent" style="whiteSpace=wrap;html=1;aspect=fixed;" vertex="1" parent="1">
          <mxGeometry x="-1066.3396226415095" y="523.0805369127517" width="75.20308702297726" height="75.20308702297726" as="geometry" />
        </mxCell>
        <mxCell id="Iw1TXWK6W0mvqqL7WwOG-57" value="&lt;b&gt;&lt;font style=&quot;color: rgb(19, 1, 1);&quot;&gt;UI&lt;/font&gt;&lt;/b&gt;" style="rounded=0;whiteSpace=wrap;html=1;verticalAlign=top;fillColor=#FFDEC5;strokeColor=#B41A0F;gradientColor=#FAC6CF;gradientDirection=south;" vertex="1" parent="1">
          <mxGeometry x="-666.4570230607965" y="214" width="606.4570230607966" height="520.0402684563757" as="geometry" />
        </mxCell>
        <mxCell id="Iw1TXWK6W0mvqqL7WwOG-66" style="edgeStyle=orthogonalEdgeStyle;rounded=0;orthogonalLoop=1;jettySize=auto;html=1;exitX=0.5;exitY=1;exitDx=0;exitDy=0;" edge="1" parent="1" source="Iw1TXWK6W0mvqqL7WwOG-58" target="Iw1TXWK6W0mvqqL7WwOG-63">
          <mxGeometry relative="1" as="geometry" />
        </mxCell>
        <mxCell id="Iw1TXWK6W0mvqqL7WwOG-67" style="edgeStyle=orthogonalEdgeStyle;rounded=0;orthogonalLoop=1;jettySize=auto;html=1;exitX=1;exitY=0.5;exitDx=0;exitDy=0;" edge="1" parent="1" source="Iw1TXWK6W0mvqqL7WwOG-58" target="Iw1TXWK6W0mvqqL7WwOG-64">
          <mxGeometry relative="1" as="geometry" />
        </mxCell>
        <mxCell id="Iw1TXWK6W0mvqqL7WwOG-73" style="edgeStyle=orthogonalEdgeStyle;rounded=0;orthogonalLoop=1;jettySize=auto;html=1;exitX=0.5;exitY=0;exitDx=0;exitDy=0;" edge="1" parent="1" source="Iw1TXWK6W0mvqqL7WwOG-58" target="Iw1TXWK6W0mvqqL7WwOG-60">
          <mxGeometry relative="1" as="geometry" />
        </mxCell>
        <mxCell id="Iw1TXWK6W0mvqqL7WwOG-79" style="edgeStyle=orthogonalEdgeStyle;rounded=0;orthogonalLoop=1;jettySize=auto;html=1;exitX=0.25;exitY=0;exitDx=0;exitDy=0;entryX=1;entryY=0.5;entryDx=0;entryDy=0;" edge="1" parent="1" source="Iw1TXWK6W0mvqqL7WwOG-58" target="Iw1TXWK6W0mvqqL7WwOG-6">
          <mxGeometry relative="1" as="geometry" />
        </mxCell>
        <mxCell id="Iw1TXWK6W0mvqqL7WwOG-80" value="Company Name" style="edgeLabel;html=1;align=center;verticalAlign=middle;resizable=0;points=[];" vertex="1" connectable="0" parent="Iw1TXWK6W0mvqqL7WwOG-79">
          <mxGeometry x="-0.2914" y="-1" relative="1" as="geometry">
            <mxPoint as="offset" />
          </mxGeometry>
        </mxCell>
        <mxCell id="Iw1TXWK6W0mvqqL7WwOG-58" value="Streamlit&amp;nbsp;" style="whiteSpace=wrap;html=1;aspect=fixed;" vertex="1" parent="1">
          <mxGeometry x="-554.6415094339618" y="326.83892617449663" width="131.60540229021026" height="131.60540229021026" as="geometry" />
        </mxCell>
        <mxCell id="Iw1TXWK6W0mvqqL7WwOG-60" value="Browser" style="rounded=1;whiteSpace=wrap;html=1;" vertex="1" parent="1">
          <mxGeometry x="-545.1656184486378" y="228.71812080536913" width="113.71069182389937" height="58.8724832214765" as="geometry" />
        </mxCell>
        <mxCell id="Iw1TXWK6W0mvqqL7WwOG-63" value="Ploty Chart" style="shape=cylinder3;whiteSpace=wrap;html=1;boundedLbl=1;backgroundOutline=1;size=15;" vertex="1" parent="1">
          <mxGeometry x="-568.8553459119498" y="562.3288590604027" width="161.09014675052407" height="78.49664429530199" as="geometry" />
        </mxCell>
        <mxCell id="Iw1TXWK6W0mvqqL7WwOG-64" value="ReportLab" style="shape=cylinder3;whiteSpace=wrap;html=1;boundedLbl=1;backgroundOutline=1;size=15;" vertex="1" parent="1">
          <mxGeometry x="-346.17190775681365" y="353.3951677852349" width="161.09014675052407" height="78.49664429530199" as="geometry" />
        </mxCell>
        <mxCell id="Iw1TXWK6W0mvqqL7WwOG-75" style="edgeStyle=orthogonalEdgeStyle;rounded=0;orthogonalLoop=1;jettySize=auto;html=1;exitX=1;exitY=0;exitDx=0;exitDy=27.5;exitPerimeter=0;entryX=0;entryY=0.25;entryDx=0;entryDy=0;" edge="1" parent="1" source="Iw1TXWK6W0mvqqL7WwOG-15" target="Iw1TXWK6W0mvqqL7WwOG-58">
          <mxGeometry relative="1" as="geometry" />
        </mxCell>
        <mxCell id="Iw1TXWK6W0mvqqL7WwOG-81" value="&lt;b&gt;Tools&lt;/b&gt;&lt;div&gt;&lt;br&gt;&lt;/div&gt;" style="rounded=0;whiteSpace=wrap;html=1;verticalAlign=top;fillColor=#fff2cc;strokeColor=#d6b656;gradientColor=#FFBDC6;" vertex="1" parent="1">
          <mxGeometry x="-2772" y="438.2060402684564" width="691.7400419287212" height="289.4563758389261" as="geometry" />
        </mxCell>
        <mxCell id="Iw1TXWK6W0mvqqL7WwOG-84" value="Financial Tool" style="shape=cylinder3;whiteSpace=wrap;html=1;boundedLbl=1;backgroundOutline=1;size=15;" vertex="1" parent="1">
          <mxGeometry x="-2743.5723270440253" y="483.83221476510073" width="161.09014675052407" height="78.49664429530199" as="geometry" />
        </mxCell>
        <mxCell id="Iw1TXWK6W0mvqqL7WwOG-87" value="SerperDevTool" style="shape=cylinder3;whiteSpace=wrap;html=1;boundedLbl=1;backgroundOutline=1;size=15;" vertex="1" parent="1">
          <mxGeometry x="-2525.6268343815514" y="483.83221476510073" width="161.09014675052407" height="78.49664429530199" as="geometry" />
        </mxCell>
        <mxCell id="Iw1TXWK6W0mvqqL7WwOG-89" value="DateTimeTool" style="shape=cylinder3;whiteSpace=wrap;html=1;boundedLbl=1;backgroundOutline=1;size=15;" vertex="1" parent="1">
          <mxGeometry x="-2317.1572327044023" y="483.83221476510073" width="161.09014675052407" height="78.49664429530199" as="geometry" />
        </mxCell>
        <mxCell id="Iw1TXWK6W0mvqqL7WwOG-92" value="Gmail" style="shape=cylinder3;whiteSpace=wrap;html=1;boundedLbl=1;backgroundOutline=1;size=15;" vertex="1" parent="1">
          <mxGeometry x="-2743.5723270440253" y="622.1825503355705" width="161.09014675052407" height="78.49664429530199" as="geometry" />
        </mxCell>
        <mxCell id="Iw1TXWK6W0mvqqL7WwOG-93" value="Calender" style="shape=cylinder3;whiteSpace=wrap;html=1;boundedLbl=1;backgroundOutline=1;size=15;" vertex="1" parent="1">
          <mxGeometry x="-2535.1027253668763" y="622.1825503355705" width="161.09014675052407" height="78.49664429530199" as="geometry" />
        </mxCell>
        <mxCell id="Iw1TXWK6W0mvqqL7WwOG-94" value="GMeet" style="shape=cylinder3;whiteSpace=wrap;html=1;boundedLbl=1;backgroundOutline=1;size=15;" vertex="1" parent="1">
          <mxGeometry x="-2317.1572327044023" y="622.1825503355705" width="161.09014675052407" height="78.49664429530199" as="geometry" />
        </mxCell>
      </root>
    </mxGraphModel>
  </diagram>
</mxfile>
